
<svg version="1.1" id="Слой_1" xmlns="http://www.w3.org/2000/svg" x="0px" y="0px"
	 width="153.07px" height="90.708px" viewBox="0 -2.834 153.07 90.708" enable-background="new 0 -2.834 153.07 90.708"
	 xml:space="preserve">
<g>
	<g>
		
			<linearGradient id="SVGID_1_" gradientUnits="userSpaceOnUse" x1="-166.8655" y1="184.8716" x2="-53.0693" y2="201.7872" gradientTransform="matrix(1 0 0 -1 174.3149 210.2686)">
			<stop  offset="0" style="stop-color:#1180C4"/>
			<stop  offset="0.4944" style="stop-color:#843795"/>
			<stop  offset="1" style="stop-color:#F29922"/>
		</linearGradient>
		<path fill="url(#SVGID_1_)" stroke="#932067" stroke-width="0.8771" stroke-miterlimit="10" d="M45.794,4.199l-0.565,4.105
			c-1.135-0.205-2.261-0.36-3.378-0.466c-1.116-0.103-2.209-0.153-3.272-0.153c-1.359,0-2.729,0.086-4.112,0.259
			c-1.384,0.172-2.78,0.422-4.189,0.748L32.73,46.91l-11.697-1.521l2.893-36.387l-1.757,0.026c-1.876,0.034-3.523-0.054-4.945-0.262
			c-1.418-0.206-2.594-0.544-3.522-1.006c-1.292-0.653-2.253-1.563-2.882-2.717S9.875,2.459,9.875,0.751V0.105l1.729-0.595
			c0.069,1.933,0.797,3.378,2.183,4.336c1.387,0.956,3.413,1.436,6.081,1.436c2.256,0,5.608-0.335,10.061-1.007
			c4.448-0.671,7.803-1.006,10.056-1.006c1.189,0,2.272,0.079,3.256,0.246C44.219,3.678,45.073,3.908,45.794,4.199z M29.205,28.098
			c0-0.636-0.229-1.19-0.685-1.665c-0.456-0.475-1.013-0.711-1.668-0.711c-0.652,0-1.213,0.236-1.678,0.711
			s-0.697,1.029-0.697,1.665c0,0.675,0.232,1.238,0.697,1.705c0.465,0.466,1.024,0.696,1.678,0.696c0.655,0,1.212-0.23,1.668-0.696
			C28.976,29.336,29.205,28.772,29.205,28.098z M28.636,36.206c0-0.602-0.151-1.057-0.451-1.369
			c-0.303-0.308-0.762-0.464-1.382-0.464c-0.619,0-1.09,0.156-1.407,0.464c-0.319,0.313-0.478,0.769-0.478,1.369
			c0,0.62,0.157,1.083,0.478,1.385c0.317,0.301,0.788,0.45,1.407,0.45c0.62,0,1.079-0.149,1.382-0.45
			C28.485,37.289,28.636,36.826,28.636,36.206z M28.766,20.402c0-0.617-0.152-1.085-0.453-1.395
			c-0.302-0.31-0.763-0.466-1.381-0.466c-0.62,0-1.09,0.156-1.407,0.466c-0.318,0.31-0.479,0.776-0.479,1.395
			c0,0.638,0.16,1.108,0.479,1.408c0.317,0.302,0.787,0.45,1.407,0.45c0.618,0,1.079-0.148,1.381-0.45
			C28.614,21.511,28.766,21.04,28.766,20.402z"/>
		
			<linearGradient id="SVGID_2_" gradientUnits="userSpaceOnUse" x1="-165.6599" y1="176.7729" x2="-51.8679" y2="193.6879" gradientTransform="matrix(1 0 0 -1 174.3149 210.2686)">
			<stop  offset="0" style="stop-color:#1180C4"/>
			<stop  offset="0.4944" style="stop-color:#843795"/>
			<stop  offset="1" style="stop-color:#F29922"/>
		</linearGradient>
		<path fill="url(#SVGID_2_)" stroke="#932067" stroke-width="0.8771" stroke-miterlimit="10" d="M82.078,24.972
			c0,2.724-0.389,5.279-1.162,7.678c-0.771,2.394-1.952,4.633-3.535,6.718c-1.72,2.273-3.659,3.977-5.818,5.115
			c-2.158,1.138-4.563,1.706-7.211,1.706c-2.621,0-5.012-0.568-7.172-1.706c-2.165-1.14-4.105-2.842-5.829-5.115
			c-1.566-2.07-2.739-4.306-3.514-6.718c-0.775-2.413-1.162-4.972-1.162-7.678c0-2.703,0.382-5.234,1.15-7.597
			c0.766-2.36,1.905-4.538,3.422-6.535c1.673-2.188,3.585-3.829,5.737-4.923c2.154-1.097,4.55-1.643,7.184-1.643
			c2.633,0,5.037,0.546,7.214,1.643c2.175,1.094,4.133,2.729,5.869,4.896c1.604,2.015,2.805,4.2,3.613,6.562
			C81.671,19.737,82.078,22.269,82.078,24.972z M76.513,27.415c0-0.227,0-0.453,0-0.688c0-0.229-0.009-0.478-0.027-0.737
			l-4.025,0.313l-0.467-2.042l4.132-0.647c-0.224-1.14-0.541-2.203-0.953-3.196c-0.415-0.988-0.923-1.91-1.525-2.754l-3.435,4.112
			l-1.498-1.216l3.021-5.018c-0.999-0.863-2.102-1.5-3.306-1.917c-1.205-0.412-2.54-0.611-4.003-0.594l1.574,6.208l-1.834,0.648
			l-2.193-6.313c-1.292,0.466-2.47,1.149-3.538,2.055c-1.067,0.906-2.04,2.022-2.918,3.352l4.209,4.681l-1.521,1.783l-3.953-4.111
			c-0.55,1.294-0.954,2.547-1.211,3.751c-0.259,1.206-0.372,2.362-0.338,3.464l0.025,0.983L57.3,29.84v2.275l-4.366-0.259
			c0.122,0.842,0.325,1.696,0.609,2.556c0.283,0.86,0.642,1.72,1.068,2.581l3.538-3.176l1.448,1.318l-3.614,3.819
			c0.737,0.948,1.554,1.731,2.439,2.35c0.886,0.62,1.854,1.094,2.903,1.424l0.594-5.089l1.834,0.259l-0.129,5.215h0.285
			c1.084,0,2.146-0.163,3.188-0.503c1.04-0.334,2.062-0.863,3.061-1.587l-2.97-5.759l1.755-1.033l3.048,5.109
			c0.636-0.702,1.195-1.425,1.682-2.166c0.479-0.739,0.885-1.507,1.211-2.299l-4.286-3.719l1.137-1.136l4.003,2.35
			c0.257-0.725,0.451-1.498,0.579-2.324C76.448,29.222,76.513,28.345,76.513,27.415z"/>
		
			<linearGradient id="SVGID_3_" gradientUnits="userSpaceOnUse" x1="-164.9539" y1="172.022" x2="-51.1611" y2="188.9371" gradientTransform="matrix(1 0 0 -1 174.3149 210.2686)">
			<stop  offset="0" style="stop-color:#1180C4"/>
			<stop  offset="0.4944" style="stop-color:#843795"/>
			<stop  offset="1" style="stop-color:#F29922"/>
		</linearGradient>
		<path fill="url(#SVGID_3_)" stroke="#932067" stroke-width="0.8771" stroke-miterlimit="10" d="M119.857,15.96
			c0,3.275-1.051,6.051-3.146,8.326c-2.099,2.275-4.774,3.412-8.021,3.412c-2.122,0-3.901-0.483-5.342-1.447
			c-1.439-0.964-2.538-2.409-3.3-4.339l-1.702,25.411l-5.139,1.393L92.69,25.994l-4.155,0.517l-0.466-4.468l4.492-0.567
			l-0.131-4.599l-4.361,0.335l-0.259-4.617l4.492-0.263L92.2,7.839l-4.65,0.542l0.052-4.699c4.497-0.261,8.084-0.456,10.766-0.595
			c2.681-0.137,4.459-0.204,5.337-0.204c2.409,0,4.554,0.239,6.438,0.722c1.885,0.48,3.515,1.202,4.894,2.167
			c1.596,1.117,2.803,2.525,3.609,4.231C119.454,11.706,119.857,13.692,119.857,15.96z M114.642,16.567
			c0-3.115-0.935-5.451-2.808-7.011c-1.863-1.561-4.666-2.336-8.401-2.336c-0.344,0-0.7,0.013-1.06,0.038
			c-0.36,0.024-0.739,0.048-1.138,0.063l-0.617,8.444c0.617-1.567,1.483-2.75,2.596-3.553c1.108-0.8,2.475-1.199,4.092-1.199
			c1.411,0,2.612,0.442,3.604,1.328c0.986,0.891,1.483,2.027,1.483,3.424c0,0.982-0.321,1.818-0.954,2.517
			c-0.64,0.698-1.439,1.048-2.402,1.048c-0.64,0-1.173-0.133-1.601-0.398c-0.433-0.27-0.756-0.687-0.982-1.253l0.57,0.051
			c0.67,0.067,1.177-0.038,1.512-0.323c0.332-0.283,0.501-0.728,0.501-1.329c0-0.499-0.146-0.879-0.44-1.136
			c-0.291-0.259-0.72-0.388-1.29-0.388s-1.063,0.124-1.482,0.374c-0.426,0.25-0.798,0.613-1.124,1.098
			c-0.275,0.412-0.479,0.875-0.607,1.381c-0.128,0.51-0.193,1.063-0.193,1.665c0,1.396,0.449,2.532,1.344,3.41
			c0.896,0.879,2.037,1.316,3.433,1.316c0.966,0,1.827-0.189,2.583-0.567c0.761-0.378,1.403-0.938,1.937-1.678
			c0.482-0.674,0.847-1.426,1.085-2.263C114.52,18.458,114.642,17.547,114.642,16.567z"/>
	</g>
	
		<linearGradient id="SVGID_4_" gradientUnits="userSpaceOnUse" x1="-80.6663" y1="131.1011" x2="-72.0398" y2="131.1011" gradientTransform="matrix(1 0 0 -1 174.3149 210.2686)">
		<stop  offset="0" style="stop-color:#1180C4"/>
		<stop  offset="0.4944" style="stop-color:#843795"/>
		<stop  offset="1" style="stop-color:#F29922"/>
	</linearGradient>
	<path fill="#FBAF40" stroke="url(#SVGID_4_)" stroke-width="0.618" stroke-miterlimit="10" d="M97.991,83.291
		c0.72,1.613,2.098,2.571,3.079,2.135c0.977-0.44,1.188-2.103,0.467-3.721l-3.931-8.8l-3.55,1.591L97.991,83.291z"/>
	
		<linearGradient id="SVGID_5_" gradientUnits="userSpaceOnUse" x1="-96.7405" y1="150.937" x2="-71.0823" y2="150.937" gradientTransform="matrix(1 0 0 -1 174.3149 210.2686)">
		<stop  offset="0" style="stop-color:#1180C4"/>
		<stop  offset="0.4944" style="stop-color:#843795"/>
		<stop  offset="1" style="stop-color:#F29922"/>
	</linearGradient>
	<path fill="#FFFFFF" stroke="url(#SVGID_5_)" stroke-width="0.618" stroke-miterlimit="10" d="M88.546,43.319
		c-4.844-3.063-9.545-0.963-10.494,4.687c-0.458,2.718,0.027,5.901,1.349,8.858l8.537,19.099c0.262,0.584,0.783,0.914,1.171,0.746
		l0.002-0.002l13.438-6.01c0.387-0.171,0.493-0.777,0.229-1.357c0.004-0.004,0-0.004,0.004-0.008l-8.538-19.101
		C92.923,47.27,90.872,44.781,88.546,43.319z"/>
	
		<linearGradient id="SVGID_6_" gradientUnits="userSpaceOnUse" x1="-95.3562" y1="144.9399" x2="-71.0823" y2="144.9399" gradientTransform="matrix(1 0 0 -1 174.3149 210.2686)">
		<stop  offset="0" style="stop-color:#1180C4"/>
		<stop  offset="0.4944" style="stop-color:#843795"/>
		<stop  offset="1" style="stop-color:#F29922"/>
	</linearGradient>
	<path fill="#86D1D9" stroke="url(#SVGID_6_)" stroke-width="0.618" stroke-miterlimit="10" d="M79.401,56.864l8.537,19.099
		c0.262,0.584,0.783,0.914,1.171,0.746l0.002-0.002l13.438-6.01c0.387-0.171,0.493-0.777,0.229-1.357
		c0.004-0.004,0-0.004,0.004-0.008l-6.872-15.377C86.832,56.037,78.08,53.907,79.401,56.864z"/>
	<g>
		
			<linearGradient id="SVGID_7_" gradientUnits="userSpaceOnUse" x1="-74.9094" y1="161.4487" x2="-49.949" y2="161.4487" gradientTransform="matrix(1 0 0 -1 174.3149 210.2686)">
			<stop  offset="0" style="stop-color:#1180C4"/>
			<stop  offset="0.4944" style="stop-color:#843795"/>
			<stop  offset="1" style="stop-color:#F29922"/>
		</linearGradient>
		<path fill="#85D1D8" stroke="url(#SVGID_7_)" stroke-width="0.8771" stroke-miterlimit="10" d="M123.913,51.871
			c-0.604,4.375-1.442,7.778-2.526,10.215c-1.085,2.433-2.619,4.129-4.613,5.088c-2.235,1.074-4.613,0.852-7.134-0.674
			c-2.521-1.524-4.609-3.998-6.254-7.42c-2.697-5.605-3.854-11.428-3.47-17.465c0.385-6.034,2.135-9.803,5.244-11.301
			c1.528-0.737,3.085-0.684,4.678,0.155c1.59,0.84,2.883,2.3,3.882,4.378c0.356,0.738,0.534,1.334,0.53,1.789
			c0,0.455-0.165,0.986-0.49,1.597l-1.94,3.609c-0.233,0.438-0.439,0.697-0.609,0.778c-0.242,0.115-0.484-0.089-0.739-0.614
			c-0.102-0.211-0.385-0.927-0.846-2.148c-0.461-1.22-0.751-1.962-0.881-2.228c-0.556-1.155-1.165-2.016-1.824-2.569
			c-0.659-0.561-1.257-0.709-1.792-0.453c-1.252,0.604-1.714,2.577-1.386,5.921c0.326,3.34,1.364,6.827,3.112,10.46
			c1.509,3.134,3.201,5.396,5.083,6.796c1.876,1.396,3.635,1.701,5.265,0.918c1.391-0.675,2.409-1.916,3.049-3.729
			c0.639-1.816,1.133-4.363,1.48-7.642L123.913,51.871z"/>
		
			<linearGradient id="SVGID_8_" gradientUnits="userSpaceOnUse" x1="-55.9241" y1="170.6313" x2="-30.6667" y2="170.6313" gradientTransform="matrix(1 0 0 -1 174.3149 210.2686)">
			<stop  offset="0" style="stop-color:#1180C4"/>
			<stop  offset="0.4944" style="stop-color:#843795"/>
			<stop  offset="1" style="stop-color:#F29922"/>
		</linearGradient>
		<path fill="#85D1D8" stroke="url(#SVGID_8_)" stroke-width="0.8771" stroke-miterlimit="10" d="M143.196,42.588
			c-0.602,4.342-1.39,7.715-2.373,10.114c-0.98,2.4-2.52,4.107-4.616,5.116c-2.338,1.124-4.772,0.888-7.313-0.713
			c-2.534-1.597-4.702-4.267-6.501-8.002c-2.685-5.581-3.854-11.234-3.503-16.965c0.356-5.729,2.072-9.334,5.146-10.815
			c1.601-0.767,3.186-0.754,4.754,0.048c1.573,0.8,2.852,2.227,3.839,4.279c2.623,5.449,0.969,11.688-4.954,18.724
			c3.154,4.801,6.187,6.502,9.089,5.104c1.138-0.544,1.994-1.533,2.573-2.965c0.581-1.43,1.139-4.247,1.674-8.463L143.196,42.588z
			 M126.173,41.789c3.483-4.011,3.999-8.569,1.541-13.677c-1.214-2.526-2.423-3.5-3.628-2.922c-1.132,0.547-1.577,2.39-1.339,5.529
			C122.995,33.861,124.132,37.554,126.173,41.789z"/>
	</g>
</g>
</svg>
