<?xml version="1.0" encoding="utf-8"?>
<!-- Generator: Adobe Illustrator 28.0.0, SVG Export Plug-In . SVG Version: 6.00 Build 0)  -->
<svg version="1.1" id="Слой_1" xmlns="http://www.w3.org/2000/svg" xmlns:xlink="http://www.w3.org/1999/xlink" x="0px" y="0px"
	 viewBox="0 0 68 44" style="enable-background:new 0 0 68 44;" xml:space="preserve">
<style type="text/css">
	.st0{fill:url(#SVGID_1_);stroke:#932067;stroke-width:0.8771;stroke-miterlimit:10;}
	
		.st1{fill:url(#SVGID_00000013192195431016943900000001897082902617860287_);stroke:#932067;stroke-width:0.8771;stroke-miterlimit:10;}
	
		.st2{fill:url(#SVGID_00000093146841488493677540000014367819390854922930_);stroke:#932067;stroke-width:0.8771;stroke-miterlimit:10;}
	
		.st3{fill:#FBAF40;stroke:url(#SVGID_00000138554061180588345800000010870549164645198990_);stroke-width:0.618;stroke-miterlimit:10;}
	
		.st4{fill:#FFFFFF;stroke:url(#SVGID_00000047739865137916232170000006304226665342264215_);stroke-width:0.618;stroke-miterlimit:10;}
	
		.st5{fill:#86D1D9;stroke:url(#SVGID_00000088108649504654206600000010590404405186813085_);stroke-width:0.618;stroke-miterlimit:10;}
	
		.st6{fill:#85D1D8;stroke:url(#SVGID_00000074419696667766076410000001089464225287193007_);stroke-width:0.8771;stroke-miterlimit:10;}
	
		.st7{fill:#85D1D8;stroke:url(#SVGID_00000098219548468071891160000015321046411588380588_);stroke-width:0.8771;stroke-miterlimit:10;}
</style>
<g>
	<g>
		
			<linearGradient id="SVGID_1_" gradientUnits="userSpaceOnUse" x1="-174.8909" y1="-601.2204" x2="-117.9928" y2="-592.7626" gradientTransform="matrix(1 0 0 -1 174.3149 -587.6314)">
			<stop  offset="0" style="stop-color:#1180C4"/>
			<stop  offset="0.4944" style="stop-color:#843795"/>
			<stop  offset="1" style="stop-color:#F29922"/>
		</linearGradient>
		<path class="st0" d="M18.6,3l-0.3,2c-0.6-0.1-1.1-0.2-1.7-0.2C16,4.7,15.5,4.7,15,4.7c-0.7,0-1.4,0-2.1,0.1
			c-0.7,0.1-1.4,0.2-2.1,0.4L12,24.3l-5.8-0.8L7.7,5.4H6.8c-0.9,0-1.8,0-2.5-0.1C3.6,5.1,3,5,2.6,4.7C1.9,4.4,1.4,4,1.1,3.4
			S0.6,2.1,0.6,1.2V0.9l0.9-0.3c0,1,0.4,1.7,1.1,2.2s1.7,0.7,3,0.7c1.1,0,2.8-0.2,5-0.5s3.9-0.5,5-0.5c0.6,0,1.1,0,1.6,0.1
			C17.8,2.7,18.2,2.8,18.6,3z M10.3,14.9c0-0.3-0.1-0.6-0.3-0.8s-0.5-0.4-0.8-0.4s-0.6,0.1-0.8,0.4s-0.3,0.5-0.3,0.8
			s0.1,0.6,0.3,0.9c0.2,0.2,0.5,0.3,0.8,0.3S9.8,16,10,15.8C10.2,15.5,10.3,15.2,10.3,14.9z M10,19c0-0.3-0.1-0.5-0.2-0.7
			C9.6,18.1,9.4,18,9.1,18s-0.5,0.1-0.7,0.2c-0.2,0.2-0.2,0.5-0.2,0.8s0.1,0.5,0.2,0.7c0.2,0.2,0.4,0.2,0.7,0.2s0.5-0.1,0.7-0.2
			C9.9,19.5,10,19.3,10,19z M10.1,11.1c0-0.3-0.1-0.5-0.2-0.7c-0.2-0.2-0.4-0.2-0.7-0.2s-0.5,0.1-0.7,0.2s-0.3,0.3-0.3,0.7
			c0,0.3,0.1,0.6,0.2,0.7C8.6,11.9,8.9,12,9.2,12s0.5-0.1,0.7-0.2C10,11.6,10.1,11.4,10.1,11.1z"/>
		
			<linearGradient id="SVGID_00000101809077905594731130000008361383039825897857_" gradientUnits="userSpaceOnUse" x1="-174.2825" y1="-605.3074" x2="-117.3865" y2="-596.8499" gradientTransform="matrix(1 0 0 -1 174.3149 -587.6314)">
			<stop  offset="0" style="stop-color:#1180C4"/>
			<stop  offset="0.4944" style="stop-color:#843795"/>
			<stop  offset="1" style="stop-color:#F29922"/>
		</linearGradient>
		
			<path style="fill:url(#SVGID_00000101809077905594731130000008361383039825897857_);stroke:#932067;stroke-width:0.8771;stroke-miterlimit:10;" d="
			M36.7,13.3c0,1.4-0.2,2.6-0.6,3.8c-0.4,1.2-1,2.3-1.8,3.4c-0.9,1.1-1.8,2-2.9,2.6S29.1,24,27.8,24c-1.3,0-2.5-0.3-3.6-0.9
			s-2.1-1.4-2.9-2.6c-0.8-1-1.4-2.2-1.8-3.4s-0.6-2.5-0.6-3.8c0-1.4,0.2-2.6,0.6-3.8s1-2.3,1.7-3.3c1-1,1.9-1.8,3-2.4
			C25.3,3.3,26.5,3,27.8,3c1.3,0,2.5,0.3,3.6,0.8c1.1,0.5,2.1,1.4,2.9,2.4c0.8,1,1.4,2.1,1.8,3.3S36.7,12,36.7,13.3z M34,14.6
			c0-0.1,0-0.2,0-0.3s0-0.2,0-0.4l-2,0.2l-0.2-1l2.1-0.3c-0.1-0.6-0.3-1.1-0.5-1.6s-0.5-1-0.8-1.4l-1.7,2.1l-0.7-0.6l1.5-2.5
			c-0.5-0.4-1.1-0.7-1.7-1c-0.6-0.2-1.3-0.3-2-0.3l0.8,3.1l-0.9,0.3l-1.1-3.2c-0.6,0.2-1.2,0.6-1.8,1c-0.5,0.5-1,1-1.5,1.7l2.1,2.3
			l-0.8,0.9l-2-2.1c-0.3,0.6-0.5,1.3-0.6,1.9C22.1,14,22,14.6,22,15.1v0.5l2.3,0.2v1.1l-2.1-0.1c0.1,0.4,0.2,0.8,0.3,1.3
			c0.1,0.4,0.3,0.9,0.5,1.3l1.8-1.6l0.7,0.7l-1.8,1.9c0.4,0.5,0.8,0.9,1.2,1.2c0.4,0.3,0.9,0.5,1.5,0.7l0.3-2.5l0.9,0.1l-0.1,2.6
			h0.1c0.5,0,1.1-0.1,1.6-0.3c0.5-0.2,1-0.4,1.5-0.8l-1.5-2.9l1-0.5l1.5,2.6c0.3-0.4,0.6-0.7,0.8-1.1s0.4-0.8,0.6-1.1L31,16.5
			l0.6-0.6l2,1.2c0.1-0.4,0.2-0.7,0.3-1.2C33.9,15.5,34,15,34,14.6z"/>
		
			<linearGradient id="SVGID_00000037679722827785507920000004287009679681252482_" gradientUnits="userSpaceOnUse" x1="-173.9359" y1="-607.6398" x2="-117.0395" y2="-599.1824" gradientTransform="matrix(1 0 0 -1 174.3149 -587.6314)">
			<stop  offset="0" style="stop-color:#1180C4"/>
			<stop  offset="0.4944" style="stop-color:#843795"/>
			<stop  offset="1" style="stop-color:#F29922"/>
		</linearGradient>
		
			<path style="fill:url(#SVGID_00000037679722827785507920000004287009679681252482_);stroke:#932067;stroke-width:0.8771;stroke-miterlimit:10;" d="
			M55.6,8.8c0,1.6-0.5,3-1.6,4.2c-1,1.1-2.4,1.7-4,1.7c-1.1,0-2-0.2-2.7-0.7s-1.3-1.2-1.7-2.2l-0.9,12.7l-2.6,0.7l-0.3-11.4
			l-2.1,0.3l-0.2-2.2l2.2-0.3l-0.1-2.3l-2.2,0.2l-0.1-2.3L41.9,7l-0.1-2.2L39.5,5V2.7c2.2-0.1,4-0.2,5.4-0.3
			c1.3-0.1,2.2-0.1,2.7-0.1c1.2,0,2.3,0.1,3.2,0.4c0.9,0.2,1.8,0.6,2.4,1.1C54,4.4,54.6,5.1,55,5.9S55.6,7.7,55.6,8.8z M53,9.1
			c0-1.6-0.5-2.7-1.4-3.5s-2.3-1.2-4.2-1.2c-0.2,0-0.3,0-0.5,0s-0.4,0-0.6,0L46,8.6C46.3,8,46.8,7.4,47.3,7c0.6-0.4,1.2-0.6,2-0.6
			c0.7,0,1.3,0.2,1.8,0.7c0.5,0.4,0.7,1,0.7,1.7c0,0.5-0.2,0.9-0.5,1.3c-0.3,0.3-0.7,0.5-1.2,0.5c-0.3,0-0.6-0.1-0.8-0.2
			c-0.2-0.1-0.4-0.3-0.5-0.6h0.3c0.3,0,0.6,0,0.8-0.2c0.2-0.2,0.3-0.4,0.3-0.7c0-0.2-0.1-0.4-0.2-0.6c-0.1-0.1-0.4-0.2-0.6-0.2
			s-0.5,0.1-0.7,0.2c-0.2,0.1-0.4,0.3-0.6,0.5C48,9,47.9,9.2,47.8,9.5s-0.1,0.5-0.1,0.8c0,0.7,0.2,1.3,0.7,1.7
			c0.4,0.4,1,0.7,1.7,0.7c0.5,0,0.9-0.1,1.3-0.3c0.4-0.2,0.7-0.5,1-0.8c0.2-0.3,0.4-0.7,0.5-1.1C53,10.1,53,9.6,53,9.1z"/>
	</g>
	
		<linearGradient id="SVGID_00000061451140979662281130000012306140207798106522_" gradientUnits="userSpaceOnUse" x1="-131.994" y1="-628.1046" x2="-127.3221" y2="-628.1046" gradientTransform="matrix(1 0 0 -1 174.3149 -587.6314)">
		<stop  offset="0" style="stop-color:#1180C4"/>
		<stop  offset="0.4944" style="stop-color:#843795"/>
		<stop  offset="1" style="stop-color:#F29922"/>
	</linearGradient>
	
		<path style="fill:#FBAF40;stroke:url(#SVGID_00000061451140979662281130000012306140207798106522_);stroke-width:0.618;stroke-miterlimit:10;" d="
		M44.7,42.5c0.4,0.8,1,1.3,1.5,1.1s0.6-1.1,0.2-1.9l-2-4.4l-1.8,0.8L44.7,42.5z"/>
	
		<linearGradient id="SVGID_00000014594715379953386280000008063265340472752526_" gradientUnits="userSpaceOnUse" x1="-139.981" y1="-618.1984" x2="-126.843" y2="-618.1984" gradientTransform="matrix(1 0 0 -1 174.3149 -587.6314)">
		<stop  offset="0" style="stop-color:#1180C4"/>
		<stop  offset="0.4944" style="stop-color:#843795"/>
		<stop  offset="1" style="stop-color:#F29922"/>
	</linearGradient>
	
		<path style="fill:#FFFFFF;stroke:url(#SVGID_00000014594715379953386280000008063265340472752526_);stroke-width:0.618;stroke-miterlimit:10;" d="
		M40,22.5c-2.4-1.5-4.8-0.5-5.3,2.4c-0.2,1.4,0,3,0.7,4.4l4.3,9.5c0.1,0.3,0.4,0.5,0.6,0.4l0,0l6.7-3c0.2-0.1,0.2-0.4,0.1-0.7l0,0
		L42.8,26C42.2,24.5,41.1,23.2,40,22.5z"/>
	
		<linearGradient id="SVGID_00000177464816691560568900000016529136201190005147_" gradientUnits="userSpaceOnUse" x1="-139.2976" y1="-621.1687" x2="-126.8402" y2="-621.1687" gradientTransform="matrix(1 0 0 -1 174.3149 -587.6314)">
		<stop  offset="0" style="stop-color:#1180C4"/>
		<stop  offset="0.4944" style="stop-color:#843795"/>
		<stop  offset="1" style="stop-color:#F29922"/>
	</linearGradient>
	
		<path style="fill:#86D1D9;stroke:url(#SVGID_00000177464816691560568900000016529136201190005147_);stroke-width:0.618;stroke-miterlimit:10;" d="
		M35.4,29.3l4.3,9.5c0.1,0.3,0.4,0.5,0.6,0.4l0,0l6.7-3c0.2-0.1,0.2-0.4,0.1-0.7l0,0l-3.4-7.7C39.1,28.9,34.7,27.8,35.4,29.3z"/>
	<g>
		
			<linearGradient id="SVGID_00000106859684207320708080000003271981038285259407_" gradientUnits="userSpaceOnUse" x1="-129.1303" y1="-612.9103" x2="-116.2001" y2="-612.9103" gradientTransform="matrix(1 0 0 -1 174.3149 -587.6314)">
			<stop  offset="0" style="stop-color:#1180C4"/>
			<stop  offset="0.4944" style="stop-color:#843795"/>
			<stop  offset="1" style="stop-color:#F29922"/>
		</linearGradient>
		
			<path style="fill:#85D1D8;stroke:url(#SVGID_00000106859684207320708080000003271981038285259407_);stroke-width:0.8771;stroke-miterlimit:10;" d="
			M57.7,26.8c-0.3,2.2-0.7,3.9-1.3,5.1c-0.5,1.2-1.3,2.1-2.3,2.5c-1.1,0.5-2.3,0.4-3.6-0.3c-1.3-0.8-2.3-2-3.1-3.7
			c-1.3-2.8-1.9-5.7-1.7-8.7s1.1-4.9,2.6-5.7c0.8-0.4,1.5-0.3,2.3,0.1s1.4,1.1,1.9,2.2c0.2,0.4,0.3,0.7,0.3,0.9
			c0,0.2-0.1,0.5-0.2,0.8l-1,1.8c-0.1,0.2-0.2,0.3-0.3,0.4s-0.2,0-0.4-0.3c-0.1-0.1-0.2-0.5-0.4-1.1s-0.4-1-0.4-1.1
			c-0.3-0.6-0.6-1-0.9-1.3c-0.3-0.3-0.6-0.4-0.9-0.2c-0.6,0.3-0.9,1.3-0.7,3s0.7,3.4,1.6,5.2c0.8,1.6,1.6,2.7,2.5,3.4
			c0.9,0.7,1.8,0.9,2.6,0.5c0.7-0.3,1.2-1,1.5-1.9s0.6-2.2,0.7-3.8L57.7,26.8z"/>
		
			<linearGradient id="SVGID_00000074419333640467521340000002944795041789253002_" gradientUnits="userSpaceOnUse" x1="-119.6378" y1="-608.3558" x2="-106.5633" y2="-608.3558" gradientTransform="matrix(1 0 0 -1 174.3149 -587.6314)">
			<stop  offset="0" style="stop-color:#1180C4"/>
			<stop  offset="0.4944" style="stop-color:#843795"/>
			<stop  offset="1" style="stop-color:#F29922"/>
		</linearGradient>
		
			<path style="fill:#85D1D8;stroke:url(#SVGID_00000074419333640467521340000002944795041789253002_);stroke-width:0.8771;stroke-miterlimit:10;" d="
			M67.3,22.1c-0.3,2.2-0.7,3.9-1.2,5.1s-1.3,2.1-2.3,2.6c-1.2,0.6-2.4,0.4-3.7-0.4s-2.4-2.1-3.3-4c-1.3-2.8-1.9-5.6-1.8-8.5
			c0.2-2.9,1-4.7,2.6-5.4c0.8-0.4,1.6-0.4,2.4,0c0.8,0.4,1.4,1.1,1.9,2.1c1.3,2.7,0.5,5.8-2.5,9.4c1.6,2.4,3.1,3.3,4.5,2.6
			c0.6-0.3,1-0.8,1.3-1.5s0.6-2.1,0.8-4.2L67.3,22.1z M58.8,21.7c1.7-2,2-4.3,0.8-6.8c-0.6-1.3-1.2-1.8-1.8-1.5s-0.8,1.2-0.7,2.8
			C57.2,17.8,57.8,19.6,58.8,21.7z"/>
	</g>
</g>
</svg>
